PathFileType	3	(X/Y/Z)	C:\Users\koon_\Desktop\
DataRate	CameraRate	NumFrames	NumMarkers	Units	OrigDataRate	OrigDataStartFrame	OrigNumFrames
100.0	100.0	8	27	mm	100.0	449	3589	
Frame#	Time	get:LFHD			get:RFHD			get:LBHD			get:RBHD			get:C7			get:T10			get:CLAV			get:STRN			get:RBAK			get:LSHO			get:LUPA			get:LELB			get:LFRA			get:LWRA			get:LWRB			get:LFIN			get:RSHO			get:RUPA			get:RELB			get:RFRA			get:RWRA			get:RWRB			get:RFIN			get:LASI			get:RASI			get:LPSI			get:RPSI			
		X1	Y1	Z1	X2	Y2	Z2	X3	Y3	Z3	X4	Y4	Z4	X5	Y5	Z5	X6	Y6	Z6	X7	Y7	Z7	X8	Y8	Z8	X9	Y9	Z9	X10	Y10	Z10	X11	Y11	Z11	X12	Y12	Z12	X13	Y13	Z13	X14	Y14	Z14	X15	Y15	Z15	X16	Y16	Z16	X17	Y17	Z17	X18	Y18	Z18	X19	Y19	Z19	X20	Y20	Z20	X21	Y21	Z21	X22	Y22	Z22	X23	Y23	Z23	X24	Y24	Z24	X25	Y25	Z25	X26	Y26	Z26	X27	Y27	Z27	
449	4.48	275.92593	1244.4803	-211.03299	274.50351	1247.0353	-63.475513	144.91972	1284.6088	-211.01677	147.41833	1279.954	-57.044331	39.514988	1138.6643	-138.65573	-116.44942	1004.213	-155.95941	157.39337	953.77472	-148.31744	78.407204	815.453	-146.60869	-6.1191292	1090.9921	-34.63472	118.14762	1100.1355	-293.88098	203.63771	935.63715	-333.2966	217.59532	814.14435	-380.4093	307.0578	824.53027	-348.91528	453.7131	757.51422	-308.35068	436.04727	711.59991	-363.90277	512.90601	712.48175	-364.759	143.92574	1082.0963	-19.00775	184.16515	987.70276	48.791477	233.56187	786.9848	94.633858	391.68735	774.73724	62.955357	482.59518	742.32562	46.28603	450.05936	692.82343	87.083473	536.42737	708.45496	92.947067	-33.478634	750.47528	-283.42752	-100.06715	738.82318	-0.3265906	-234.91397	788.39655	-243.20615	-257.39111	783.77191	-155.06468
450	4.49	275.24649	1240.4268	-210.51566	273.8399	1242.9523	-62.977596	144.09694	1280.3201	-210.49333	146.67708	1275.6066	-56.49017	39.418453	1134.7776	-139.10092	-117.35796	1000.7599	-155.92532	156.2412	949.47784	-148.03229	77.07209	811.27344	-146.34544	-6.5707936	1086.8729	-34.230186	117.70419	1096.1532	-293.52292	202.63283	931.32013	-333.09415	216.43068	809.70251	-380.09686	305.97034	820.13733	-348.62946	452.69702	753.50378	-308.01474	435.00589	707.30341	-363.31186	512.45245	708.53052	-364.50369	143.50058	1077.7189	-18.585548	183.65558	983.18097	49.190716	233.04121	782.49744	95.059723	391.21234	770.17792	63.530712	482.13681	737.90265	46.916523	449.55795	688.13837	87.417213	536.05188	703.67194	93.314552	-34.5438	747.15607	-283.31894	-101.25491	735.15344	-0.12028651	-236.21593	784.63751	-243.11156	-258.64749	780.00977	-154.97374
451	4.5	274.61255	1236.4852	-209.93199	273.1676	1238.908	-62.395462	143.42464	1276.2059	-209.87048	145.92293	1271.3842	-55.953926	38.563988	1130.952	-137.4165	-118.24044	997.30658	-155.85677	155.13925	945.36133	-147.6931	75.772041	807.26239	-146.08186	-7.2051249	1083.145	-33.930531	117.20988	1092.2787	-293.05612	201.65685	926.95746	-332.76892	214.77077	805.18945	-379.98297	304.3746	815.67847	-348.36557	451.0639	749.7052	-307.66238	433.56345	703.06537	-362.69577	510.78909	704.30585	-363.4834	142.95248	1073.427	-18.197838	182.94923	978.7522	49.54261	232.18507	777.99298	95.503212	390.35272	765.76367	64.221695	481.33499	733.58466	47.64922	448.6727	683.56158	87.794022	535.39154	699.13562	93.809715	-35.493626	743.85004	-283.14783	-102.38152	731.56769	0.035767797	-237.32141	780.90991	-243.14024	-259.832	776.3382	-154.99358
452	4.51	273.99829	1232.6365	-209.38979	272.5105	1234.9966	-61.787346	142.76828	1272.2709	-209.23116	145.30055	1267.4119	-55.30172	38.488964	1127.2496	-137.94583	-119.1352	993.8963	-155.70862	153.89395	941.43457	-147.34416	74.713417	803.3786	-145.79271	-7.7940135	1079.4855	-33.160362	116.71536	1088.4779	-292.50052	200.40268	922.49017	-332.48599	212.75043	800.6582	-379.92896	302.2735	811.27521	-348.2627	448.98682	746.12012	-307.1673	431.7457	698.96136	-361.89941	509.17892	700.84918	-362.96573	142.27911	1069.2928	-17.763695	182.11278	974.3656	49.920448	230.93024	773.44812	95.931412	389.14111	761.435	64.927032	480.17963	729.49768	48.398235	447.56006	679.13135	88.075272	534.32587	694.66119	94.357002	-36.23885	740.54199	-282.96661	-103.40833	728.17133	0.13251118	-238.34477	777.16138	-243.16016	-260.86505	772.58154	-154.85736
453	4.52	273.44107	1228.9219	-208.75232	271.95197	1231.1613	-61.195473	142.1561	1268.485	-208.62033	144.71289	1263.5461	-54.659111	37.482136	1123.7792	-136.06583	-119.91745	990.55994	-154.97162	152.81767	937.604	-146.91351	74.256157	799.62506	-144.83452	-8.4998741	1075.9187	-32.753716	116.15812	1084.8109	-292.13544	199.00906	917.98145	-332.21957	210.35059	796.29852	-380.13071	299.64368	806.9184	-348.33896	446.41904	742.6427	-306.64755	429.57556	695.02008	-360.90289	506.75256	696.96497	-361.61353	141.6272	1065.3967	-17.162962	181.22804	970.15802	50.333591	229.32704	769.00592	96.54628	387.56595	757.21686	65.728439	478.63901	725.57422	49.218437	446.04803	674.85309	88.336212	532.86932	690.45441	94.900383	-36.896935	737.33765	-282.80698	-104.43458	724.88995	0.29957217	-239.24449	773.44672	-243.14653	-261.8967	769.06207	-155.09679
454	4.53	272.97974	1225.3221	-208.09358	271.40005	1227.4702	-60.460751	141.67636	1264.9573	-207.90959	144.19775	1259.8752	-54.002476	36.968719	1120.4266	-135.51906	-120.77858	987.38525	-154.78227	151.60234	934.01398	-146.5172	73.502975	797.04938	-144.31879	-9.2089577	1072.3832	-32.520405	115.59977	1081.3158	-291.65186	197.35318	913.4812	-332.17386	207.6362	791.86652	-380.23929	296.72803	802.63611	-348.52969	443.45874	739.21985	-306.09363	427.04285	691.25568	-360.14697	504.58746	693.68976	-360.8129	140.83987	1061.6637	-16.757969	180.23047	966.12555	50.949593	227.45532	764.74139	97.213791	385.6301	753.18286	66.564384	476.77423	721.89679	50.018185	444.32394	670.78027	88.612717	531.19586	686.51123	95.508682	-37.481518	734.15833	-282.57736	-105.31382	721.74438	0.43195897	-239.96899	769.84973	-243.24411	-262.74222	765.49335	-155.09019
455	4.54	272.58038	1221.8875	-207.29352	270.87204	1223.8984	-59.684517	141.28908	1261.6151	-207.20755	143.67885	1256.3723	-53.320484	36.597565	1117.3319	-135.83757	-121.68674	984.41699	-154.7986	150.72099	930.64935	-146.11081	72.208069	793.41064	-144.36374	-9.9938936	1069.126	-32.258324	115.01024	1078.0818	-291.26282	195.48018	909.05597	-332.41959	204.65501	787.57965	-380.56274	293.55228	798.45441	-348.76114	440.17786	735.91132	-305.45447	424.20087	687.56787	-359.30713	501.99222	690.22266	-359.4585	140.11868	1058.2618	-16.180822	179.09581	962.27979	51.468132	225.24847	760.52295	97.942368	383.39099	749.24792	67.411011	474.53778	718.35791	50.85191	442.23065	666.86328	88.959221	529.09137	682.69226	96.139542	-37.889378	731.11322	-282.29993	-106.16586	718.82977	0.52028608	-240.66512	766.37592	-243.3755	-263.4953	762.10016	-155.24307
456	4.55	272.24854	1218.5743	-206.51216	270.43851	1220.399	-58.935192	141.08356	1258.5471	-206.55565	143.25604	1253.0991	-52.671482	35.753849	1114.3704	-134.45314	-122.49673	981.47437	-154.51326	149.65881	927.60364	-145.71533	70.927475	790.14856	-144.29247	-10.852405	1066.1077	-31.774391	114.39783	1075.095	-290.93451	193.31291	904.7453	-332.76868	201.40649	783.40558	-380.88522	290.18341	794.42084	-349.06308	436.62964	732.68695	-304.86758	421.07132	683.91235	-358.47464	499.01047	686.75403	-358.07169	139.22002	1055.0962	-15.563619	177.86551	958.65851	52.11768	222.71082	756.40601	98.833076	380.77032	745.45966	68.237511	471.97089	714.99597	51.621929	439.85211	663.13361	89.160538	526.7113	679.27008	96.713852	-38.241249	728.24548	-282.0416	-106.941	716.07062	0.75032687	-241.25	763.04224	-243.57794	-264.19699	758.79279	-155.35614
